<mxfile host="app.diagrams.net" agent="Mozilla/5.0 (Macintosh; Intel Mac OS X 10_15_7) AppleWebKit/537.36 (KHTML, like Gecko) Chrome/131.0.0.0 Safari/537.36" version="26.0.5">
  <diagram name="Page-1" id="V7VQbiWQNcpdrUXjG1kd">
    <mxGraphModel dx="954" dy="559" grid="1" gridSize="10" guides="1" tooltips="1" connect="1" arrows="1" fold="1" page="1" pageScale="1" pageWidth="827" pageHeight="1169" math="0" shadow="0">
      <root>
        <mxCell id="0" />
        <mxCell id="1" parent="0" />
        <mxCell id="YG-Nd98rjGqurVpmYyMf-8" value="" style="edgeStyle=orthogonalEdgeStyle;rounded=0;orthogonalLoop=1;jettySize=auto;html=1;" edge="1" parent="1" source="YG-Nd98rjGqurVpmYyMf-4" target="YG-Nd98rjGqurVpmYyMf-6">
          <mxGeometry relative="1" as="geometry" />
        </mxCell>
        <mxCell id="YG-Nd98rjGqurVpmYyMf-21" value="Invoke rest APIs" style="edgeLabel;html=1;align=center;verticalAlign=middle;resizable=0;points=[];" vertex="1" connectable="0" parent="YG-Nd98rjGqurVpmYyMf-8">
          <mxGeometry x="-0.0364" relative="1" as="geometry">
            <mxPoint as="offset" />
          </mxGeometry>
        </mxCell>
        <mxCell id="YG-Nd98rjGqurVpmYyMf-4" value="Dashboard" style="rounded=0;whiteSpace=wrap;html=1;" vertex="1" parent="1">
          <mxGeometry x="180" y="130" width="120" height="60" as="geometry" />
        </mxCell>
        <mxCell id="YG-Nd98rjGqurVpmYyMf-10" value="" style="edgeStyle=orthogonalEdgeStyle;rounded=0;orthogonalLoop=1;jettySize=auto;html=1;entryX=0;entryY=0;entryDx=0;entryDy=27.5;entryPerimeter=0;exitX=1;exitY=0.25;exitDx=0;exitDy=0;" edge="1" parent="1" source="YG-Nd98rjGqurVpmYyMf-6" target="YG-Nd98rjGqurVpmYyMf-7">
          <mxGeometry relative="1" as="geometry">
            <mxPoint x="610" y="160" as="targetPoint" />
          </mxGeometry>
        </mxCell>
        <mxCell id="YG-Nd98rjGqurVpmYyMf-27" value="Save the configuration" style="edgeLabel;html=1;align=center;verticalAlign=middle;resizable=0;points=[];" vertex="1" connectable="0" parent="YG-Nd98rjGqurVpmYyMf-10">
          <mxGeometry x="-0.25" y="-1" relative="1" as="geometry">
            <mxPoint x="15" y="-21" as="offset" />
          </mxGeometry>
        </mxCell>
        <mxCell id="YG-Nd98rjGqurVpmYyMf-15" style="edgeStyle=orthogonalEdgeStyle;rounded=0;orthogonalLoop=1;jettySize=auto;html=1;exitX=0.5;exitY=1;exitDx=0;exitDy=0;" edge="1" parent="1" source="YG-Nd98rjGqurVpmYyMf-6" target="YG-Nd98rjGqurVpmYyMf-12">
          <mxGeometry relative="1" as="geometry" />
        </mxCell>
        <mxCell id="YG-Nd98rjGqurVpmYyMf-20" value="Write config.json" style="edgeLabel;html=1;align=center;verticalAlign=middle;resizable=0;points=[];" vertex="1" connectable="0" parent="YG-Nd98rjGqurVpmYyMf-15">
          <mxGeometry x="-0.0444" y="1" relative="1" as="geometry">
            <mxPoint as="offset" />
          </mxGeometry>
        </mxCell>
        <mxCell id="YG-Nd98rjGqurVpmYyMf-6" value="Backend" style="rounded=0;whiteSpace=wrap;html=1;" vertex="1" parent="1">
          <mxGeometry x="410" y="130" width="120" height="60" as="geometry" />
        </mxCell>
        <mxCell id="YG-Nd98rjGqurVpmYyMf-7" value="Database" style="shape=cylinder3;whiteSpace=wrap;html=1;boundedLbl=1;backgroundOutline=1;size=15;" vertex="1" parent="1">
          <mxGeometry x="680" y="119" width="60" height="80" as="geometry" />
        </mxCell>
        <mxCell id="YG-Nd98rjGqurVpmYyMf-11" style="edgeStyle=orthogonalEdgeStyle;rounded=0;orthogonalLoop=1;jettySize=auto;html=1;exitX=0;exitY=0;exitDx=0;exitDy=52.5;exitPerimeter=0;entryX=1;entryY=0.75;entryDx=0;entryDy=0;" edge="1" parent="1" source="YG-Nd98rjGqurVpmYyMf-7" target="YG-Nd98rjGqurVpmYyMf-6">
          <mxGeometry relative="1" as="geometry" />
        </mxCell>
        <mxCell id="YG-Nd98rjGqurVpmYyMf-28" value="Read the configuration" style="edgeLabel;html=1;align=center;verticalAlign=middle;resizable=0;points=[];" vertex="1" connectable="0" parent="YG-Nd98rjGqurVpmYyMf-11">
          <mxGeometry x="0.4215" relative="1" as="geometry">
            <mxPoint x="25" y="16" as="offset" />
          </mxGeometry>
        </mxCell>
        <mxCell id="YG-Nd98rjGqurVpmYyMf-16" value="" style="edgeStyle=orthogonalEdgeStyle;rounded=0;orthogonalLoop=1;jettySize=auto;html=1;" edge="1" parent="1" source="YG-Nd98rjGqurVpmYyMf-12" target="YG-Nd98rjGqurVpmYyMf-13">
          <mxGeometry relative="1" as="geometry" />
        </mxCell>
        <mxCell id="YG-Nd98rjGqurVpmYyMf-12" value="Amazon S3" style="sketch=0;outlineConnect=0;fontColor=#232F3E;gradientColor=none;strokeColor=#ffffff;fillColor=#232F3E;dashed=0;verticalLabelPosition=middle;verticalAlign=bottom;align=center;html=1;whiteSpace=wrap;fontSize=10;fontStyle=1;spacing=3;shape=mxgraph.aws4.productIcon;prIcon=mxgraph.aws4.s3;" vertex="1" parent="1">
          <mxGeometry x="430" y="280" width="80" height="100" as="geometry" />
        </mxCell>
        <mxCell id="YG-Nd98rjGqurVpmYyMf-18" value="" style="edgeStyle=orthogonalEdgeStyle;rounded=0;orthogonalLoop=1;jettySize=auto;html=1;" edge="1" parent="1" source="YG-Nd98rjGqurVpmYyMf-13" target="YG-Nd98rjGqurVpmYyMf-14">
          <mxGeometry relative="1" as="geometry">
            <mxPoint x="398.5" y="456.6" as="targetPoint" />
          </mxGeometry>
        </mxCell>
        <mxCell id="YG-Nd98rjGqurVpmYyMf-25" value="Download config.json" style="edgeLabel;html=1;align=center;verticalAlign=middle;resizable=0;points=[];" vertex="1" connectable="0" parent="YG-Nd98rjGqurVpmYyMf-18">
          <mxGeometry x="0.3052" relative="1" as="geometry">
            <mxPoint x="28" as="offset" />
          </mxGeometry>
        </mxCell>
        <mxCell id="YG-Nd98rjGqurVpmYyMf-13" value="CDN" style="points=[];aspect=fixed;html=1;align=center;shadow=0;dashed=0;fillColor=#FF6A00;strokeColor=none;shape=mxgraph.alibaba_cloud.cdn_content_distribution_network;" vertex="1" parent="1">
          <mxGeometry x="444" y="435.4" width="51" height="42.3" as="geometry" />
        </mxCell>
        <mxCell id="YG-Nd98rjGqurVpmYyMf-14" value="Mobile client" style="sketch=0;outlineConnect=0;fontColor=#232F3E;gradientColor=none;strokeColor=#232F3E;fillColor=#ffffff;dashed=0;verticalLabelPosition=bottom;verticalAlign=top;align=center;html=1;fontSize=12;fontStyle=0;aspect=fixed;shape=mxgraph.aws4.resourceIcon;resIcon=mxgraph.aws4.mobile_client;" vertex="1" parent="1">
          <mxGeometry x="50" y="407.7" width="97.7" height="97.7" as="geometry" />
        </mxCell>
        <mxCell id="YG-Nd98rjGqurVpmYyMf-24" value="" style="edgeStyle=orthogonalEdgeStyle;rounded=0;orthogonalLoop=1;jettySize=auto;html=1;" edge="1" parent="1" source="YG-Nd98rjGqurVpmYyMf-22" target="YG-Nd98rjGqurVpmYyMf-4">
          <mxGeometry relative="1" as="geometry" />
        </mxCell>
        <mxCell id="YG-Nd98rjGqurVpmYyMf-26" value="Modify the configuration&amp;nbsp;" style="edgeLabel;html=1;align=center;verticalAlign=middle;resizable=0;points=[];" vertex="1" connectable="0" parent="YG-Nd98rjGqurVpmYyMf-24">
          <mxGeometry x="-0.0943" y="3" relative="1" as="geometry">
            <mxPoint x="-4" y="54" as="offset" />
          </mxGeometry>
        </mxCell>
        <mxCell id="YG-Nd98rjGqurVpmYyMf-22" value="" style="sketch=0;outlineConnect=0;fontColor=#232F3E;gradientColor=none;fillColor=#232F3D;strokeColor=none;dashed=0;verticalLabelPosition=bottom;verticalAlign=top;align=center;html=1;fontSize=12;fontStyle=0;aspect=fixed;pointerEvents=1;shape=mxgraph.aws4.authenticated_user;" vertex="1" parent="1">
          <mxGeometry x="50" y="120" width="78" height="78" as="geometry" />
        </mxCell>
      </root>
    </mxGraphModel>
  </diagram>
</mxfile>
